<!DOCTYPE svg PUBLIC "-//W3C//DTD SVG 1.1//EN" "http://www.w3.org/Graphics/SVG/1.1/DTD/svg11.dtd">
<!-- Uploaded to: SVG Repo, www.svgrepo.com, Transformed by: SVG Repo Mixer Tools -->
<svg width="64px" height="64px" viewBox="0 0 45 45" fill="none" xmlns="http://www.w3.org/2000/svg">
<g id="SVGRepo_bgCarrier" stroke-width="0"/>
<g id="SVGRepo_tracerCarrier" stroke-linecap="round" stroke-linejoin="round"/>
<g id="SVGRepo_iconCarrier"> <path d="M22.917 18.926H31M23 8V10.801V26.926M23 8.926C27.418 8.926 31 12.508 31 16.926V26.926H23C23 26.926 23 12.051 23 8.926Z" stroke="#3C3C3C" stroke-width="2"/> <path d="M23.083 18.926H15M23 8V10.801V26.926M23 8.926C18.582 8.926 15 12.508 15 16.926V26.926H23C23 26.926 23 12.051 23 8.926Z" stroke="#3C3C3C" stroke-width="2"/> <path d="M33 26.926V36.926" stroke="#3C3C3C" stroke-width="2"/> <path d="M29 26.926V36.926" stroke="#3C3C3C" stroke-width="2"/> <path d="M25 26.926V36.926" stroke="#3C3C3C" stroke-width="2"/> <path d="M21 26.926V36.926" stroke="#3C3C3C" stroke-width="2"/> <path d="M17 26.926V36.926" stroke="#3C3C3C" stroke-width="2"/> <path d="M13 26.926V36.926" stroke="#3C3C3C" stroke-width="2"/> <path d="M10 36.926H36" stroke="#3C3C3C" stroke-width="2"/> <path d="M10 26.926H36" stroke="#3C3C3C" stroke-width="2"/> </g>
</svg>