<?xml version="1.0" encoding="utf-8"?>
<!-- Generator: Adobe Illustrator 25.0.0, SVG Export Plug-In . SVG Version: 6.00 Build 0)  -->
<svg version="1.1" id="Layer_1" xmlns="http://www.w3.org/2000/svg" xmlns:xlink="http://www.w3.org/1999/xlink" x="0px" y="0px"
	 viewBox="0 0 507 181" style="enable-background:new 0 0 507 181;" xml:space="preserve">
<style type="text/css">
	.st0{fill-rule:evenodd;clip-rule:evenodd;fill:#FFFFFF;}
	.st1{fill:#A50064;}
</style>
<path class="st0" d="M487,0H20C9,0,0,9,0,20v141c0,11,9,20,20,20h467c11,0,20-9,20-20V20C507,9,498,0,487,0z"/>
<g>
	<path class="st1" d="M118.2,48c-7.2,0-13.8,2.4-19.1,6.4c-5.3-4-12-6.4-19.1-6.4c-17.7,0-32,14.3-32,31.9V133h24.5V79.6
		c0-4,3.2-7.2,7.2-7.2s7.2,3.2,7.2,7.2V133h24.5V79.6c0-4,3.2-7.2,7.2-7.2s7.2,3.2,7.2,7.2V133h24.5V79.9
		C150.1,62.3,135.8,48,118.2,48z"/>
	<path class="st1" d="M416.5,48C393,48,374,67,374,90.5s19,42.5,42.5,42.5S459,114,459,90.5S440,48,416.5,48z M416.5,108.6
		c-10,0-18.1-8.1-18.1-18.1s8.1-18.1,18.1-18.1s18.1,8.1,18.1,18.1C434.5,100.5,426.4,108.6,416.5,108.6z"/>
	<path class="st1" d="M329.8,48c-7.2,0-13.8,2.4-19.1,6.4c-5.3-4-12-6.4-19.1-6.4c-17.6,0-31.9,14.3-31.9,31.9V133h24.5V79.6
		c0-4,3.2-7.2,7.2-7.2s7.2,3.2,7.2,7.2V133h24.5V79.6c0-4,3.2-7.2,7.2-7.2s7.2,3.2,7.2,7.2V133H362V79.9
		C361.7,62.3,347.4,48,329.8,48z"/>
	<path class="st1" d="M204.8,48c-23.5,0-42.5,19-42.5,42.5s19,42.5,42.5,42.5s42.5-19,42.5-42.5S228.3,48,204.8,48z M204.8,108.6
		c-10,0-18.1-8.1-18.1-18.1s8.1-18.1,18.1-18.1s18.1,8.1,18.1,18.1C222.9,100.5,214.8,108.6,204.8,108.6z"/>
</g>
</svg>
